<svg id="Capa_1" enable-background="new 0 0 512 512" height="512" viewBox="0 0 512 512" width="512" xmlns="http://www.w3.org/2000/svg"><g><g><g><path d="m74.028 510.79c-4.428 0-8.802-1.395-12.567-4.126-6.288-4.562-9.561-11.897-8.754-19.624l.368-3.523c-23.357-14.616-41.458-36.679-51.249-62.605-2.651-7.021-2.41-14.656.681-21.496 3.09-6.84 8.659-12.067 15.681-14.719 7.021-2.651 14.655-2.411 21.496.68 6.84 3.09 12.067 8.659 14.719 15.681 2.27 6.01 5.273 11.582 8.976 16.661 2.092-2.59 4.808-4.696 8.006-6.123 7.093-3.166 15.083-2.331 21.371 2.232l47.235 34.272c6.287 4.562 9.559 11.897 8.752 19.622s-5.522 14.227-12.615 17.391l-53.298 23.779c-2.844 1.272-5.835 1.898-8.802 1.898zm-45.907-112.912c-1.562 0-3.128.283-4.633.852-3.274 1.236-5.87 3.673-7.311 6.862-1.44 3.188-1.553 6.748-.317 10.021 9.146 24.219 26.511 44.611 48.896 57.417 2.579 1.475 4.043 4.333 3.735 7.289l-.864 8.278c-.351 3.362 1.731 5.263 2.643 5.924.911.661 3.365 2.05 6.451.673l53.298-23.779c3.086-1.377 3.691-4.13 3.808-5.25s.093-3.938-2.643-5.924l-47.235-34.272c-2.736-1.984-5.422-1.131-6.452-.674-1.028.458-3.458 1.888-3.809 5.25l-.245 2.341c-.299 2.856-2.202 5.291-4.901 6.271s-5.721.332-7.782-1.669c-9.043-8.779-15.903-19.252-20.389-31.13-1.236-3.274-3.673-5.87-6.862-7.311-1.723-.778-3.553-1.169-5.388-1.169z"/></g><g><path d="m483.946 129.11c-11.366 0-22.09-6.938-26.333-18.171-2.274-6.013-5.279-11.585-8.979-16.662-2.091 2.59-4.805 4.694-8.001 6.12-7.095 3.166-15.084 2.333-21.375-2.226l-47.233-34.272c-6.286-4.556-9.561-11.889-8.757-19.615.803-7.729 5.519-14.235 12.612-17.403l53.305-23.771c7.089-3.167 15.079-2.335 21.37 2.227 6.289 4.561 9.562 11.897 8.753 19.623l-.37 3.522c7.057 4.408 13.677 9.509 19.73 15.206 3.017 2.839 3.161 7.585.322 10.602s-7.586 3.16-10.602.322c-6.394-6.017-13.503-11.279-21.133-15.641-2.581-1.476-4.047-4.337-3.736-7.294l.87-8.28c.351-3.356-1.73-5.256-2.642-5.917-.911-.662-3.365-2.051-6.45-.672l-53.304 23.769c-3.085 1.378-3.689 4.135-3.807 5.256-.116 1.12-.092 3.939 2.644 5.921l47.233 34.272c2.739 1.985 5.428 1.13 6.457.671 1.028-.458 3.458-1.889 3.81-5.251l.237-2.322c.292-2.86 2.193-5.301 4.895-6.285 2.696-.983 5.726-.337 7.789 1.665 9.037 8.769 15.898 19.242 20.394 31.129 2.553 6.757 10.131 10.179 16.892 7.634 6.749-2.55 10.169-10.124 7.617-16.88-2.661-7.051-6.025-13.829-10.002-20.146-2.206-3.506-1.153-8.136 2.353-10.343 3.507-2.206 8.136-1.152 10.343 2.353 4.51 7.167 8.325 14.85 11.339 22.837 5.475 14.491-1.862 30.737-16.356 36.214-3.255 1.227-6.597 1.807-9.885 1.808z"/></g></g><g><path d="m191.447 461.36c-6.515 0-12.888-1.272-18.942-3.782-25.236-10.459-37.262-39.501-26.807-64.739l6.586-15.895c-6.181-5.286-11.951-11.049-17.237-17.215l-15.88 6.579c-6.053 2.508-12.429 3.781-18.951 3.781-20.114 0-38.087-12.007-45.789-30.588-10.446-25.247 1.584-54.287 26.818-64.74l15.882-6.58c-.619-8.083-.613-16.238.016-24.355l-15.899-6.588c-1.616-.669-3.222-1.439-4.774-2.287-3.635-1.985-4.973-6.542-2.987-10.177 1.985-3.635 6.542-4.972 10.177-2.987 1.083.592 2.203 1.128 3.326 1.593l21.02 8.71c3.09 1.28 4.958 4.452 4.581 7.775-1.221 10.747-1.228 21.607-.02 32.28.376 3.322-1.493 6.493-4.582 7.772l-21 8.7c-17.595 7.289-25.984 27.54-18.7 45.143 5.369 12.955 17.903 21.328 31.93 21.328 4.541 0 8.984-.888 13.208-2.638l21.001-8.701c3.092-1.279 6.656-.359 8.738 2.258 6.706 8.422 14.39 16.096 22.838 22.809 2.621 2.083 3.545 5.65 2.263 8.743l-8.71 21.02c-7.29 17.597 1.096 37.847 18.693 45.14 4.224 1.751 8.664 2.639 13.198 2.639 14.034 0 26.571-8.376 31.941-21.34l8.699-21.018c1.279-3.091 4.45-4.961 7.775-4.584 10.756 1.221 21.62 1.227 32.291.02 3.326-.373 6.493 1.493 7.772 4.582l8.7 21c7.289 17.596 27.537 25.985 45.132 18.701.066-.027.133-.054.2-.079 17.465-7.361 25.763-27.527 18.5-45.061l-8.7-21c-1.28-3.09-.359-6.655 2.257-8.738 8.424-6.706 16.099-14.39 22.811-22.838 2.084-2.621 5.648-3.544 8.743-2.263l21.02 8.71c17.598 7.291 37.847-1.096 45.141-18.693 7.281-17.596-1.108-37.848-18.703-45.14l-21.017-8.699c-3.091-1.279-4.961-4.451-4.584-7.775 1.221-10.756 1.227-21.621.02-32.292-.376-3.322 1.492-6.493 4.582-7.772l21-8.7c17.595-7.292 25.984-27.539 18.701-45.132-5.369-12.962-17.906-21.338-31.94-21.338-4.534 0-8.975.888-13.198 2.638l-21.002 8.701c-3.087 1.279-6.652.36-8.737-2.257-6.708-8.425-14.393-16.099-22.838-22.81-2.622-2.083-3.545-5.65-2.264-8.743l8.71-21.02c3.532-8.523 3.532-17.913.001-26.438-3.532-8.527-10.174-15.168-18.702-18.701-4.226-1.751-8.663-2.639-13.19-2.639-14.03 0-26.567 8.377-31.94 21.341l-8.71 21.02c-1.281 3.09-4.456 4.956-7.775 4.581-10.747-1.221-21.608-1.227-32.281-.02-3.324.373-6.492-1.493-7.772-4.582l-8.7-21c-7.292-17.594-27.543-25.984-45.143-18.7-12.955 5.369-21.328 17.903-21.328 31.93 0 4.541.888 8.984 2.638 13.208l8.701 21.001c1.28 3.09.359 6.655-2.258 8.738-8.422 6.706-16.096 14.39-22.809 22.838-2.083 2.621-5.65 3.544-8.743 2.263l-21.02-8.71c-8.526-3.533-17.917-3.533-26.442-.001-8.524 3.532-15.165 10.174-18.698 18.703-1.751 4.225-2.639 8.666-2.639 13.2 0 4.175.752 8.283 2.235 12.208 1.464 3.875-.49 8.203-4.364 9.667-3.875 1.465-8.203-.49-9.667-4.365-2.126-5.626-3.204-11.518-3.204-17.511 0-6.515 1.272-12.888 3.782-18.942 5.066-12.229 14.589-21.753 26.814-26.818 12.226-5.066 25.695-5.065 37.925.001l15.895 6.586c5.286-6.181 11.049-11.951 17.215-17.237l-6.579-15.88c-2.508-6.053-3.781-12.429-3.781-18.951 0-20.114 12.007-38.087 30.588-45.789 25.242-10.445 54.282 1.586 64.74 26.817l6.58 15.883c8.084-.619 16.238-.613 24.355.016l6.588-15.899c7.704-18.588 25.681-30.599 45.798-30.599 6.509 0 12.879 1.272 18.933 3.782 12.228 5.065 21.753 14.59 26.818 26.818 5.065 12.229 5.064 25.696-.002 37.922l-6.586 15.893c6.18 5.285 11.95 11.048 17.236 17.215l15.881-6.579c6.052-2.508 12.425-3.781 18.94-3.781 20.122 0 38.1 12.011 45.799 30.6 10.446 25.234-1.584 54.271-26.818 64.729l-15.883 6.58c.618 8.083.613 16.239-.016 24.362l15.896 6.579c25.235 10.458 37.266 39.499 26.822 64.737-7.898 19.058-26.395 30.583-45.844 30.584-6.309 0-12.715-1.212-18.896-3.772l-15.895-6.586c-5.286 6.181-11.049 11.951-17.216 17.237l6.579 15.88c10.455 25.238-1.571 54.28-26.808 64.739-.079.033-.159.064-.24.095-6.105 2.493-12.432 3.673-18.656 3.674-19.454.001-37.947-11.526-45.843-30.587l-6.58-15.882c-8.085.619-16.241.613-24.363-.016l-6.579 15.896c-7.699 18.592-25.676 30.604-45.798 30.604z"/><path d="m256.008 334.116c-43.074 0-78.118-35.043-78.118-78.118s35.043-78.118 78.118-78.118 78.118 35.043 78.118 78.118-35.043 78.118-78.118 78.118zm0-141.236c-34.803 0-63.118 28.314-63.118 63.118s28.314 63.118 63.118 63.118 63.118-28.314 63.118-63.118-28.314-63.118-63.118-63.118z"/></g></g></svg>