<svg id="Capa_1" enable-background="new 0 0 607.775 607.775" height="512" viewBox="0 0 607.775 607.775" width="512" xmlns="http://www.w3.org/2000/svg"><g><g id="Page-1_11_"><g id="_x30_12---Engineering-Calculator"><path id="Shape_46_" d="m590.054 401.766-17.494-2.866c-3.225-11.986-8.01-23.497-14.232-34.238l10.352-14.465c5.301-7.321 5.111-17.268-.466-24.382-3.408-4.206-7.054-8.214-10.92-12.003-3.883-3.901-7.96-7.603-12.216-11.092-7.079-5.467-16.92-5.595-24.139-.314l-14.465 10.403c-10.732-6.217-22.232-11.002-34.207-14.232l-2.867-17.484c-1.43-8.937-8.634-15.83-17.625-16.866-8.747-.938-17.561-1.1-26.337-.486v-213.093c-.032-27.958-22.689-50.614-50.646-50.648h-324.144c-27.958.034-50.615 22.69-50.648 50.648v405.18c.033 27.958 22.69 50.614 50.648 50.647h262.141l-10.251 14.323c-5.386 7.328-5.229 17.348.385 24.503 3.211 3.92 6.878 7.952 10.92 11.993 3.505 3.505 7.283 6.939 12.216 11.092 7.075 5.477 16.923 5.606 24.139.314l14.465-10.373c10.733 6.216 22.233 11 34.207 14.232l2.867 17.494c1.457 8.922 8.648 15.798 17.625 16.856 10.818 1.155 21.728 1.155 32.546 0 8.93-1.09 16.058-7.962 17.473-16.845l2.867-17.494c11.983-3.231 23.49-8.019 34.228-14.242l14.465 10.352c7.369 5.333 17.389 5.102 24.503-.567 4.599-3.88 8.377-7.313 11.882-10.818 3.902-3.881 7.604-7.959 11.092-12.216 5.45-7.085 5.578-16.914.314-24.139l-10.403-14.465c6.219-10.731 11.004-22.232 14.232-34.207l17.494-2.867c8.922-1.457 15.798-8.648 16.855-17.625 1.155-10.821 1.155-21.735 0-32.556-1.1-8.925-7.975-16.044-16.856-17.454zm-569.795 54.062v-405.18c0-16.783 13.605-30.389 30.389-30.389h324.144c16.783 0 30.389 13.605 30.389 30.389v222.444c-1.712 2.381-2.877 5.109-3.414 7.992l-2.867 17.494c-11.985 3.229-23.495 8.014-34.238 14.232l-14.465-10.352c-7.312-5.341-17.289-5.15-24.392.466-3.92 3.211-7.952 6.878-11.892 10.818-3.946 3.833-7.666 7.892-11.142 12.155-5.52 7.091-5.685 16.978-.405 24.25l10.444 14.516c-6.217 10.732-11.002 22.232-14.232 34.207l-17.484 2.867c-8.937 1.43-15.83 8.634-16.866 17.625-1.161 10.828-1.161 21.749 0 32.576 1.13 8.901 7.98 15.998 16.835 17.443l17.494 2.867c1.355 4.736 2.954 9.398 4.791 13.969h-252.7c-16.784-.001-30.389-13.606-30.389-30.389zm566.523-6.453-24.108 3.951c-4.096.672-7.368 3.775-8.255 7.83-3.114 14.316-8.786 27.953-16.744 40.255-2.258 3.494-2.149 8.014.273 11.396l14.556 19.712c-3.009 3.634-6.201 7.113-9.562 10.423-3.434 3.434-6.969 6.584-10.241 9.258l-19.955-14.283c-3.375-2.386-7.861-2.482-11.335-.243-12.298 7.95-25.927 13.621-40.234 16.744-4.055.888-7.158 4.159-7.83 8.256l-3.596 24.078c-9.3.983-18.678.983-27.978 0l-3.951-24.108c-.671-4.093-3.769-7.364-7.82-8.255-14.318-3.112-27.961-8.773-40.275-16.714-3.492-2.253-8.006-2.145-11.386.273l-19.59 14.668c-3.637-3.039-7.172-6.209-10.606-9.643-3.276-3.237-6.367-6.656-9.258-10.241l14.283-19.955c2.415-3.371 2.532-7.874.294-11.365-7.95-12.298-13.621-25.927-16.744-40.234-.888-4.055-4.159-7.158-8.256-7.83l-24.078-3.596c-.497-4.711-.751-9.444-.76-14.181.005-4.612.248-9.22.729-13.807l24.108-3.951c4.096-.672 7.368-3.775 8.256-7.83 3.12-14.314 8.792-27.95 16.744-40.255 2.253-3.492 2.145-8.006-.273-11.386l-14.566-19.712c2.991-3.656 6.187-7.139 9.572-10.433 3.237-3.276 6.656-6.367 10.241-9.258l19.955 14.283c3.38 2.418 7.894 2.526 11.386.273 12.303-7.948 25.935-13.62 40.244-16.744 4.051-.891 7.149-4.162 7.82-8.256l3.596-24.078c9.296-.993 18.671-.993 27.968 0l3.951 24.108c.672 4.096 3.775 7.368 7.83 8.256 14.3 3.105 27.925 8.756 40.224 16.683 3.492 2.253 8.006 2.145 11.386-.273l19.712-14.566c3.393 2.775 6.918 5.976 10.585 9.643 3.249 3.181 6.294 6.564 9.117 10.129l-14.283 19.955c-2.407 3.382-2.508 7.89-.253 11.375 7.955 12.292 13.627 25.918 16.744 40.224.888 4.055 4.159 7.158 8.255 7.83l24.078 3.596c.501 4.714.754 9.451.76 14.191-.003 4.612-.247 9.221-.73 13.807z"/><path id="Shape_45_" d="m435.569 344.403c-50.349 0-91.165 40.816-91.165 91.166s40.816 91.165 91.165 91.165 91.165-40.816 91.165-91.165c-.061-50.324-40.842-91.105-91.165-91.166zm0 162.072c-39.161 0-70.906-31.746-70.906-70.906s31.746-70.907 70.906-70.907 70.906 31.746 70.906 70.907c-.045 39.142-31.764 70.861-70.906 70.906z"/><path id="Shape_44_" d="m435.569 384.921c-27.972 0-50.647 22.676-50.647 50.648s22.676 50.647 50.647 50.647 50.647-22.676 50.647-50.647c-.033-27.958-22.69-50.614-50.647-50.648zm0 81.036c-16.783 0-30.388-13.605-30.388-30.388s13.605-30.389 30.388-30.389 30.389 13.605 30.389 30.389c-.001 16.783-13.606 30.388-30.389 30.388z"/><path id="Shape_43_" d="m70.907 162.072h283.626c16.783 0 30.389-13.605 30.389-30.389v-60.776c0-16.783-13.605-30.389-30.389-30.389h-283.626c-16.783 0-30.389 13.605-30.389 30.389v60.777c0 16.783 13.605 30.388 30.389 30.388zm-10.13-91.165c0-5.594 4.535-10.13 10.13-10.13h283.626c5.594 0 10.13 4.535 10.13 10.13v60.777c0 5.594-4.535 10.13-10.13 10.13h-283.626c-5.594 0-10.13-4.535-10.13-10.13z"/><path id="Shape_42_" d="m111.425 182.331h-40.518c-16.783 0-30.389 13.605-30.389 30.389v20.259c0 16.783 13.605 30.389 30.389 30.389h40.518c16.783 0 30.388-13.605 30.388-30.389v-20.259c0-16.784-13.605-30.389-30.388-30.389zm10.129 50.648c0 5.594-4.535 10.13-10.129 10.13h-40.518c-5.594 0-10.13-4.535-10.13-10.13v-20.259c0-5.594 4.535-10.13 10.13-10.13h40.518c5.594 0 10.129 4.535 10.129 10.13z"/><path id="Shape_41_" d="m232.979 182.331h-40.518c-16.783 0-30.389 13.605-30.389 30.389v20.259c0 16.783 13.605 30.389 30.389 30.389h40.518c16.783 0 30.388-13.605 30.388-30.389v-20.259c0-16.784-13.605-30.389-30.388-30.389zm10.129 50.648c0 5.594-4.535 10.13-10.129 10.13h-40.518c-5.594 0-10.13-4.535-10.13-10.13v-20.259c0-5.594 4.535-10.13 10.13-10.13h40.518c5.594 0 10.129 4.535 10.129 10.13z"/><path id="Shape_40_" d="m354.533 182.331h-40.518c-16.783 0-30.388 13.605-30.388 30.389v20.259c0 16.783 13.605 30.389 30.388 30.389h40.518c16.783 0 30.389-13.605 30.389-30.389v-20.259c-.001-16.784-13.606-30.389-30.389-30.389zm10.129 50.648c0 5.594-4.535 10.13-10.13 10.13h-40.518c-5.594 0-10.129-4.535-10.129-10.13v-20.259c0-5.594 4.535-10.13 10.129-10.13h40.518c5.594 0 10.13 4.535 10.13 10.13z"/><path id="Shape_39_" d="m111.425 283.626h-40.518c-16.783 0-30.389 13.605-30.389 30.388v20.259c0 16.783 13.605 30.388 30.389 30.388h40.518c16.783 0 30.388-13.605 30.388-30.388v-20.259c0-16.783-13.605-30.388-30.388-30.388zm10.129 50.648c0 5.594-4.535 10.129-10.129 10.129h-40.518c-5.594 0-10.13-4.535-10.13-10.129v-20.259c0-5.594 4.535-10.129 10.13-10.129h40.518c5.594 0 10.129 4.535 10.129 10.129z"/><path id="Shape_38_" d="m263.367 314.015c0-16.783-13.605-30.388-30.388-30.388h-40.518c-16.783 0-30.389 13.605-30.389 30.388v20.259c0 16.783 13.605 30.388 30.389 30.388h40.518c16.783 0 30.388-13.605 30.388-30.388zm-20.259 20.259c0 5.594-4.535 10.129-10.129 10.129h-40.518c-5.594 0-10.13-4.535-10.13-10.129v-20.259c0-5.594 4.535-10.129 10.13-10.129h40.518c5.594 0 10.129 4.535 10.129 10.129z"/><path id="Shape_37_" d="m111.425 384.921h-40.518c-16.783 0-30.389 13.605-30.389 30.389v20.259c0 16.783 13.605 30.388 30.389 30.388h40.518c16.783 0 30.388-13.605 30.388-30.388v-20.259c0-16.784-13.605-30.389-30.388-30.389zm10.129 50.648c0 5.594-4.535 10.129-10.129 10.129h-40.518c-5.594 0-10.13-4.535-10.13-10.129v-20.259c0-5.594 4.535-10.13 10.13-10.13h40.518c5.594 0 10.129 4.535 10.129 10.13z"/><path id="Shape_36_" d="m192.461 405.18h40.518c5.594 0 10.129-4.535 10.129-10.129s-4.535-10.13-10.129-10.13h-40.518c-16.783 0-30.389 13.605-30.389 30.389v20.259c0 16.783 13.605 30.388 30.389 30.388h40.518c5.594 0 10.129-4.535 10.129-10.129s-4.535-10.13-10.129-10.13h-40.518c-5.594 0-10.13-4.535-10.13-10.129v-20.259c0-5.595 4.535-10.13 10.13-10.13z"/></g></g></g></svg>