<?xml version="1.0"?>
<svg xmlns="http://www.w3.org/2000/svg" viewBox="0 0 512 512" width="512" height="512"><g id="Out_line" data-name="Out line"><path d="M388.37433,339.82471a24.46373,24.46373,0,0,0-3.9964-46.94287l-12.44122-2.37012-12.34735-37.042a8.00109,8.00109,0,0,0-6.458-5.38965l-112-16a7.99712,7.99712,0,0,0-8.88867,5.96484,38.86279,38.86279,0,0,0,2.66034,26.3645l-1.40546-.26782a8.00753,8.00753,0,0,0-3.438.09766l-32,8a7.99954,7.99954,0,0,0-3.71631,13.418l24,24a7.99953,7.99953,0,0,0,4.15918,2.20117l20.4812,3.90234a42.07593,42.07593,0,0,0,7.35913,9.89453l13.65186,13.65332-.00928,5.94043a62.65506,62.65506,0,0,0,56.16358,62.415,24.0136,24.0136,0,0,0,5.50781,25.30664l60.68652,60.68653,11.31348-11.31446-60.68653-60.68652a7.99945,7.99945,0,0,1,0-11.3125L384,363.31348l98.34326,98.34375,11.31348-11.31446L390.99219,347.67822Zm-81.3985-28.16284-21.28937-21.28931,15.2558,2.90552,16.06018,3.06079.00037-.002,17.81823,3.39356-4.11291,16.45166Zm43.58826-8.93287,9.07519,1.72852-4.113,16.4519-9.0752-1.72851Zm36.368,9.62842a8.46641,8.46641,0,0,1-7.12207,13.02246,8.48857,8.48857,0,0,1-1.124-.07519c-.11377-.0127-.23145-.02539-.34522-.04883-.041-.00879-.08252-.0166-.12353-.02441l-6.94794-1.32349,4.113-16.45215,6.00042,1.14282A8.38621,8.38621,0,0,1,386.93213,312.35742Zm-40.958-49.13672,7.95343,23.86035-88.04278-16.77246-.00123-.00024c-.10729-.02026-.22308-.04907-.33276-.07153l-3.894-3.89405a7.98933,7.98933,0,0,0-7.5044-2.11767,23.31288,23.31288,0,0,1-7.042-15.12842ZM227.916,296.60254,215.648,284.334l16.584-4.1455,8.29346,1.58032a41.97126,41.97126,0,0,0-2.46631,14.23022c0,.85547.03412,1.70533.0846,2.55225ZM332.686,392h-6.04786a46.6513,46.6513,0,0,1-46.65283-46.72559L280,336.0127a7.99948,7.99948,0,0,0-2.34277-5.66895l-16.00049-16.002a25.984,25.984,0,0,1-4.77246-30.14356L304,331.31348V360h16V330.42969l51.657,9.8396,3.18994,9.56982Z"/><circle cx="360" cy="416" r="8"/><path d="M32,388.29492V96A16.01833,16.01833,0,0,1,48,80H400V64H48A32.03635,32.03635,0,0,0,16,96V416a32.03635,32.03635,0,0,0,32,32H72a24.0275,24.0275,0,0,0,24-24v-8H80v8a8.00917,8.00917,0,0,1-8,8H48a16,16,0,0,1,0-32H264V384H48A31.80424,31.80424,0,0,0,32,388.29492Z"/><path d="M464,16H440a24.0275,24.0275,0,0,0-24,24V328a24.0275,24.0275,0,0,0,24,24h24a16,16,0,0,1,0,32v16a32.03635,32.03635,0,0,0,32-32V48A32.03635,32.03635,0,0,0,464,16Zm0,320H440a8.00917,8.00917,0,0,1-8-8V40a8.00917,8.00917,0,0,1,8-8h24a16.01833,16.01833,0,0,1,16,16V340.29492A31.80424,31.80424,0,0,0,464,336Z"/><path d="M120,200a24,24,0,1,0,24,24A24.02718,24.02718,0,0,0,120,200Zm0,32a8,8,0,1,1,8-8A8.00917,8.00917,0,0,1,120,232Z"/><path d="M192,240V208a8.00008,8.00008,0,0,0-8-8h-6.05615l4.28271-4.28223a7.99958,7.99958,0,0,0,0-11.31347l-22.62939-22.63086a8,8,0,0,0-11.314-.001L144,166.05566V160a8.00008,8.00008,0,0,0-8-8H104a8.00008,8.00008,0,0,0-8,8v6.05566l-4.2832-4.2832a8,8,0,0,0-11.314.001L57.77344,184.4043a7.99958,7.99958,0,0,0,0,11.31347L62.05615,200H56a8.00008,8.00008,0,0,0-8,8v32a8.00008,8.00008,0,0,0,8,8h6.05615l-4.28271,4.28223a7.99958,7.99958,0,0,0,0,11.31347l22.62939,22.63086a8,8,0,0,0,11.314.001L96,281.94434V288a8.00008,8.00008,0,0,0,8,8h32a8.00008,8.00008,0,0,0,8-8v-6.05566l4.2832,4.2832a8,8,0,0,0,11.314-.001l22.62939-22.63086a7.99958,7.99958,0,0,0,0-11.31347L177.94385,248H184A8.00008,8.00008,0,0,0,192,240Zm-16-8H158.62988a8.0001,8.0001,0,0,0-5.65674,13.65723l12.28321,12.28222-11.31641,11.31739-12.2832-12.28418A8.00037,8.00037,0,0,0,128,262.62988V280H112V262.62988a8.00037,8.00037,0,0,0-13.65674-5.65722l-12.2832,12.28418L74.74365,257.93945l12.28321-12.28222A8.0001,8.0001,0,0,0,81.37012,232H64V216H81.37012a8.0001,8.0001,0,0,0,5.65674-13.65723L74.74365,190.06055l11.31641-11.31739,12.2832,12.28418A8.00037,8.00037,0,0,0,112,185.37012V168h16v17.37012a8.00037,8.00037,0,0,0,13.65674,5.65722l12.2832-12.28418,11.31641,11.31739-12.28321,12.28222A8.0001,8.0001,0,0,0,158.62988,216H176Z"/><path d="M226.34326,146.34277l-32,32,11.31348,11.31446L235.31348,160H328V144H232A8.00035,8.00035,0,0,0,226.34326,146.34277Z"/><rect x="232" y="96" width="32" height="16"/><rect x="280" y="96" width="48" height="16"/><rect x="232" y="120" width="48" height="16"/><rect x="296" y="120" width="16" height="16"/><path d="M117.65674,306.34277l-11.31348,11.31446,48,48A8.00035,8.00035,0,0,0,160,368h72V352H163.31348Z"/><rect x="168" y="328" width="32" height="16"/><rect x="216" y="328" width="16" height="16"/><rect x="168" y="304" width="16" height="16"/></g></svg>
