<svg id="Layer_1" data-name="Layer 1" xmlns="http://www.w3.org/2000/svg" viewBox="0 0 545.04 517.62"><defs><style>.cls-1{fill:#82b0c7;}.cls-2{fill:#5292a5;}.cls-3{fill:#5896a9;}.cls-4{fill:#659eb3;}.cls-5{fill:#6ca2b7;}.cls-6{fill:#98bed6;}.cls-7{fill:#4d8fa2;}.cls-8{fill:#4c8ea1;}.cls-9{fill:#74a7bc;}.cls-10{fill:#88b4cb;}.cls-11{fill:#408799;}.cls-12{fill:#68a0b5;}.cls-13{fill:#a4c6dd;}.cls-14{fill:#94bcd3;}.cls-15{fill:#5795a8;}.cls-16{fill:#619bb0;}.cls-17{fill:#629cb0;}.cls-18{fill:#5c98ac;}.cls-19{fill:#4d8ea1;}.cls-20{fill:#7bacc1;}.cls-21{fill:#478b9d;}.cls-22{fill:#89b4cb;}.cls-23{fill:#a5c6de;}.cls-24{fill:#72a6bb;}.cls-25{fill:#9abfd7;}.cls-26{fill:#9fc2da;}.cls-27{fill:#6aa1b6;}.cls-28{fill:#418799;}.cls-29{fill:#7cacc2;}.cls-30{fill:#6fa4b9;}.cls-31{fill:#7faec4;}.cls-32{fill:#488c9f;}.cls-33{fill:#6da3b8;}.cls-34{fill:#6ba2b7;}.cls-35{fill:#78a9bf;}.cls-36{fill:#91bad1;}.cls-37{fill:#87b3ca;}.cls-38{fill:#92bad1;}.cls-39{fill:#4c8ea2;}.cls-40{fill:#6ea4b9;}.cls-41{fill:#659eb2;}.cls-42{fill:#7aaac0;}.cls-43{fill:#5e99ad;}.cls-44{fill:#9dc1d8;}.cls-45{fill:#5996aa;}.cls-46{fill:#8eb8cf;}.cls-47{fill:#639cb1;}.cls-48{fill:#84b1c8;}.cls-49{fill:#7aabc0;}.cls-50{fill:#468a9c;}.cls-51{fill:#8ab5cc;}.cls-52{fill:#94bbd3;}.cls-53{fill:#649db2;}.cls-54{fill:#69a0b5;}.cls-55{fill:#5191a4;}.cls-56{fill:#9ec2da;}.cls-57{fill:#adcbe4;}.cls-58{fill:#73a7bc;}.cls-59{fill:#68a0b4;}.cls-60{fill:#91b9d1;}.cls-61{fill:#6ea3b8;}.cls-62{fill:#679fb4;}.cls-63{fill:#5a97ab;}.cls-64{fill:#45899b;}.cls-65{fill:#5694a8;}.cls-66{fill:#71a5ba;}.cls-67{fill:#a1c4db;}.cls-68{fill:#8fb8cf;}.cls-69{fill:#7aabc1;}.cls-70{fill:#95bcd4;}.cls-71{fill:#8fb8d0;}.cls-72{fill:#8bb6cd;}.cls-73{fill:#9abfd6;}.cls-74{fill:#96bcd4;}.cls-75{fill:#639cb0;}.cls-76{fill:#70a4ba;}.cls-77{fill:#77a8be;}.cls-78{fill:#7eadc3;}.cls-79{fill:#86b2c9;}.cls-80{fill:#7bacc2;}.cls-81{fill:#3a8395;}.cls-82{fill:#498c9e;}.cls-83{fill:#8db7ce;}.cls-84{fill:#80afc5;}.cls-85{fill:#669fb3;}.cls-86{fill:#a3c5dc;}.cls-87{fill:#e0ecf2;}.cls-88{fill:transparent;}</style></defs><title>Logo Pleng</title><path class="cls-1" d="M393.5,442.29A53.91,53.91,0,0,1,450,385c2.13.08,4.24.55,6.36.84,2.09,1.48,1.59,3.3-.1,4.3-6.54,3.88-10.58,9.93-14.62,16-12.11,2.82-20.43,10.14-25.44,21.4-3.48,2.11-5.11,6-7.84,8.54-3.75,3.49-7.7,6.87-11.51,10.37a2.36,2.36,0,0,1-2.7,0h0C393.35,445.12,394.19,443.59,393.5,442.29Z" transform="translate(-39.68 -155.24)"/><path class="cls-2" d="M72.87,470c-.67.05-1.35.14-2,.15-7.92.13-7.92.12-7.92,8.24,0,3.39-.12,6.79,0,10.18.09,2.17-.73,2.81-2.82,2.76q-7.94-.16-15.89,0c-2,0-2.52-.73-2.5-2.62.11-10.85.12-21.71.17-32.57,6-6.64,11.84-13.45,17.69-20.23,1.1-1.28,2.15-2.34,3.4-.17.7,3.09.3,6.22.34,9.33,0,2.12.71,3.42,3,3.37,7-.15,14.1.42,21.12-.34,1.24-.32,2.45-.87,3.78-.55,2.06,2.38-.26,3.76-1.46,5-2,2-4.77,3.56-6,6-2.35,4.62-8,6.08-9.86,11C73.86,469.74,73.19,469.73,72.87,470Z" transform="translate(-39.68 -155.24)"/><path class="cls-3" d="M72.87,470c1.54-2.27,3.13-4.52,4.61-6.83.75-1.17,1.29-2.42,3.09-1.59.66.3,1.69-.11,1.56-.76-.84-4.16,3.09-4.89,5-7C88.82,452,91,450.6,91.66,448c-.24-1.42.91-1.84,1.79-2.36,6.63-4,10.19-9.73,10.34-17.52a4,4,0,0,1,.56-1.91c2.43-1,1.58,1.79,3.22,2.64,3.73-4.57,9.26-7.72,12-13.48,1.22-2.52,2.68-.42,4-.24,7.22,17.48-1.67,40.07-19.4,50C94.33,470.6,83.67,470.51,72.87,470Z" transform="translate(-39.68 -155.24)"/><path class="cls-4" d="M215.25,448.79V414.45q8.79-9.92,17.94-19.5c2.87-3,4.57-7.16,8.87-8.69,7.34,0,14.67,0,22,0,1.26,0,2.89-.69,3.69.85s-.3,2.82-1.23,4c-4.45,5.66-9.63,10.64-14.61,15.82l-15.48.14c-1.05,5.37-.53,10.8-.37,16.17.16,5.1-1.76,8.9-5.29,12.25-3.73,3.55-7.73,6.85-10.52,11.32C219.22,448.49,217.74,450.29,215.25,448.79Z" transform="translate(-39.68 -155.24)"/><path class="cls-5" d="M215.25,448.79a3.07,3.07,0,0,0,3.2-1.34c3.31-6.21,9.26-10,13.73-15.17a13.43,13.43,0,0,0,3.42-10c-.2-3.78-.08-7.59,0-11.38,0-1.29-.48-2.75.85-3.77-.05,6.09,0,12.18-.19,18.27-.07,2.47,1.06,2.87,3.18,2.87,8.25,0,16.51.07,24.76.12,1.17,1.87-.26,3.19-1.23,4.29-4.83,5.44-10,10.62-14.46,16.38-.14.17-.5.15-.78.16-3.13,0-6.25.07-9.37,0-1.73-.05-2.47.51-2.4,2.32.1,2.84,0,5.7,0,8.54a3.15,3.15,0,0,1-1.3,2.42c-4.74,4.62-8.27,10.36-13.45,14.57a11.24,11.24,0,0,0-2.44,3.2c-.8,1.34-1.74,2.57-3.54,1.28Q215.24,465.14,215.25,448.79Z" transform="translate(-39.68 -155.24)"/><path class="cls-6" d="M305.87,664c6.8-.05,13.59-.18,20.38-.08,2.59,0,3.73-.59,4.29-3.44,2.41-12.21,5.32-24.32,7.74-36.53.69-3.48,2.34-5.29,5.68-5.85a178.79,178.79,0,0,0,32.86-8.76c4.75-1.77,6.66,2.29,9.07,5.09a13.16,13.16,0,0,1,.88,1.32c-1.43,3.2-3.85,4.51-7.34,4a4.31,4.31,0,0,0-4.25-.59c-8.09,2.75-16.2,5.39-24.69,6.62-2.53.36-4,1.65-4.53,4.39-2.37,11.84-5,23.63-7.42,35.46-1.28,6.21-2.38,7.28-8.6,7.27q-13.68,0-27.36-.1c-2.64-3,1-4.8,1.51-7.19C304.22,664.9,305.31,664.54,305.87,664Z" transform="translate(-39.68 -155.24)"/><path class="cls-7" d="M234,209.17c7-.49,13.17-4.08,20-5.16,2.26-.36,4.48-1.59,6.69-1.54,5.17.12,6-3.19,6.81-7.14,2.31-11.59,4.83-23.13,7.21-34.71.68-3.29,2.13-5.42,5.91-5.38,10.87.11,21.75.11,32.63.15.71,5.22-1.87,8.35-6.81,8.48-7.8.19-15.62-.55-23.41.4-2.88,13.37-5.82,26.72-8.57,40.12-.64,3.14-2.32,4.82-5.28,5.32a191.69,191.69,0,0,0-34,9.07,4.14,4.14,0,0,1-4.73-1.26c-1.52-1.52-3.21-2.93-4.16-4.93C229.49,213,231.41,210.36,234,209.17Z" transform="translate(-39.68 -155.24)"/><path class="cls-8" d="M41.94,386.66c1-1.51,2.46-.73,3.68-.74,10.46-.07,20.93.27,31.37-.12a57.77,57.77,0,0,1,26.1,5,2,2,0,0,1-1.07,2.4c-5,2.73-6.88,8.1-10.6,11.9-1.23,1.24-2.24,2.74-4.18,3-7.45.53-14.92-.07-22.36.36-2.06.31-1.42,2.42-2.3,3.51-3.15,2.08-5.47,4.48-3.93,8.71a2.68,2.68,0,0,1-.94,2.95c-4.59,4-9.49,7.54-13.88,11.73a1.79,1.79,0,0,1-1.91.31v-18c6.64-7.34,13.42-14.55,20-22a95.13,95.13,0,0,0,6.82-8c-6.07,0-11.67.12-17.26-.06C48.29,387.56,44.94,388.62,41.94,386.66Z" transform="translate(-39.68 -155.24)"/><path class="cls-1" d="M360.73,454.3c1.44-1.18.77-2.8.77-4.2,0-20,.11-40.05-.07-60.08,0-3.49,1-4.44,4.37-4.23,4.48.27,9,0,13.48.1,1.12,0,2.49-.63,3.32.77-3.21,2.22-6.85,1.15-10.29,1.23-9.56.21-8.67-.79-8.74,8.87-.07,10.46.15,20.91-.1,31.36-.11,7.92-.14,15.85,0,24.23,2.42-1.08,3.09-2.94,4-4.46,3.18-5.13,8.72-8.07,11.95-13.15a2.11,2.11,0,0,1,3.18-.67v26.16a24.94,24.94,0,0,1-10.75,13.6c-1.95,1.27-3.2,4.2-4.7,6.41a58.75,58.75,0,0,1-5,5.91c-1.09,1.24-2.36,2.39-4.2,1.15q-5.53-9.45-11.09-18.9A57.27,57.27,0,0,0,360.73,454.3Z" transform="translate(-39.68 -155.24)"/><path class="cls-9" d="M298.64,448V417.72a7,7,0,0,0,4.32-3.66c2.05-3.61,6-5.38,8.54-8.56,3-3.62,5.62-7.58,9.34-10.57,1.23-1,2.18-2.51,4.14-1.86a161.15,161.15,0,0,1,9.55,16.38,2.48,2.48,0,0,1-.27,3c-3.21,3.64-6.2,7.48-10,10.59-1.1.91-2.32,1.43-3.66.37l0,0c-1.37-.43-1.18.6-1.23,1.36a26.77,26.77,0,0,1-.2,4.47c-4.54,5.68-9.22,11.25-14.93,15.81C302.61,446.35,301.57,449.05,298.64,448Z" transform="translate(-39.68 -155.24)"/><path class="cls-10" d="M512.75,362c-7.75,0-15.5-.07-23.25.2-3.36.11-3-1.86-2.92-3.9s-1-4.59,2.82-4.4c4.2.22,8.43-.08,12.64.1,2.44.11,3.23-.62,2.34-2.93-.1-.26-.21-.51-.3-.77-4-12.43-5-8.86,5.38-18.61q10.38-9.75,21.24-19c2.8-2.4,4-4.49,1.33-7.67a14.46,14.46,0,0,1-1.56-3.29,12.44,12.44,0,0,1,6.21-6c2.08,3.49,4,7.07,6.29,10.43s1.64,5.91-1.27,8.5c-9,8-17.83,16.25-26.94,24.15-2.92,2.52-4.55,4.68-2.31,8.48,1.47,2.49.25,7,5.21,6.74,1.51.83,1.78,1.72.6,3.22A19.38,19.38,0,0,1,512.75,362Z" transform="translate(-39.68 -155.24)"/><path class="cls-11" d="M123.56,275.44c-6.47-.93-12.39-3.65-18.5-5.7-2.54-.86-3.85-.54-5.13,1.87-2.94,5.49-6.16,10.84-9.67,16.94,3.25,0,6,.15,8.75,0,3.37-.22,2.56,2.19,2.39,3.83s1.61,4.41-2.23,4.39q-19.35-.08-38.7,0c-3.83,0-2.11-2.75-2.24-4.38s-1.07-4,2.34-3.87c5.44.17,10.9-.06,16.34.09a4.6,4.6,0,0,0,4.81-2.73c4.19-7.63,8.61-15.13,13-22.66,2.61-4.5,3.57-4.73,8.59-3.05,6.38,2.13,12.8,4.15,19.23,6.13,1.51.47,2.38,2.39,4.3,1.8C127.65,271.38,125.17,273.22,123.56,275.44Z" transform="translate(-39.68 -155.24)"/><path class="cls-12" d="M134.3,386.67c3.42-1.87,7.09-.69,10.62-.75,10.45-.2,10.45-.07,10.45,10.57,0,23.16.06,46.31-.11,69.46,0,3.45,1,4.29,4.33,4.24,14.57-.17,29.14.09,43.71-.16,3.92-.07,4.84,1.21,4.61,4.81-.29,4.47-.18,9,0,13.47.08,2.28-.61,3.08-3,3.05-12.66-.14-25.33-.13-38-.17-.12-2.63,1.72-4.22,3.39-5.67,3.17-2.76,5.41-6.38,8.7-9,1.06-.85,2.44-2.29,1.76-3.77S178.33,472,177,472c-4.86,0-9.73-.14-14.59.12-8.82.14-9.09-.16-9.14-9.06,0-5.56.12-11.13.07-16.69-.07-11.1-.18-22.2.05-33.29-.2-6.79,0-13.59-.1-20.39-.06-4.32-.39-4.64-4.65-4.72-3.26-.06-6.52,0-9.78,0C137.27,387.87,135.6,387.93,134.3,386.67Z" transform="translate(-39.68 -155.24)"/><path class="cls-13" d="M451.45,591c3.86,9.27,6.3,19,9.53,28.5.75,2.19-.15,3.92-2.23,5.12q-22.94,13.21-45.81,26.51a4.78,4.78,0,0,1-6.57-1c-1.15-1.33-2.17-2.77-3.24-4.17-.57-3.68,1.95-5.79,4.11-8.09,2.41,3.81,5,3.9,8.91,1.54,10.77-6.55,21.8-12.69,32.76-18.93,2.12-1.21,2.66-2.44,1.74-4.93-1.89-5.07-3.29-10.32-4.89-15.49C446.49,596.27,449.75,594.11,451.45,591Z" transform="translate(-39.68 -155.24)"/><path class="cls-14" d="M461.18,469.92l1.6-1.61a12.56,12.56,0,0,0,7.32-5.49,28.46,28.46,0,0,1,6.9-7.39,10.71,10.71,0,0,0,4.48-9.49c0-2.09-.66-4.38,1-6.23,1.39,4.79.78,9.72.5,14.51-.44,7.88-.28,15.74-.31,23.61a5.61,5.61,0,0,1-2.59,5.06,55.35,55.35,0,0,1-35.51,10.74,9.68,9.68,0,0,1-2.29-.64c.43-.85,1.38-.93,1.91-2.12,2-4.55,5.67-8.14,9.2-11.59C456.35,476.4,458.32,472.81,461.18,469.92Z" transform="translate(-39.68 -155.24)"/><path class="cls-15" d="M134.3,386.67c5.57,0,11.15.13,16.72-.07,2.95-.11,3.7,1,3.64,3.78-.16,7.47-.08,14.95-.09,22.43-2.85,3.37-6.36,6.36-8.75,9.85-2.75,4-6.43,6.72-9.71,10a1.72,1.72,0,0,1-1.81.58Z" transform="translate(-39.68 -155.24)"/><path class="cls-16" d="M425.25,193.7c-3.67-1.11-6.67-3.48-9.85-5.45-3-1.85-5-1.89-7.51,1.09-7.59,8.88-15.68,17.33-23.34,26.16-2.93,3.38-5.87,4.33-9.93,2.4-5-2.39-10.75-2.81-15.75-5.32,2.17-2.25,4.82-4,6.69-6.56,3.22,0,6,1.66,9,2.51,2.49.71,4.11.38,6-1.77,8.09-9.34,16.45-18.45,24.73-27.63,3.7-4.12,4.67-4.31,9.32-1.55,5,2.94,9.86,6,14.78,9C429.91,189.83,428.64,192,425.25,193.7Z" transform="translate(-39.68 -155.24)"/><path class="cls-17" d="M154.58,446.34c0,6.6.21,13.21,0,19.8-.13,3.57.73,5.36,4.63,4.77a29.89,29.89,0,0,1,4.44,0c1.38,1.79.13,3-.94,4.24-4.88,5.59-10,10.92-15.41,16.06-4.18.11-9.48,1.76-12.23-.54s-.71-7.65-.83-11.67.06-8.14.1-12.21C140.78,459.68,146.61,452,154.58,446.34Z" transform="translate(-39.68 -155.24)"/><path class="cls-18" d="M154.58,446.34c-.65,3.47-4.19,4.21-6.23,6.35-4.56,4.8-8.28,10.48-14,14.08V433.23c2.68-3.23,7.18-5.05,9-8.47,2.44-4.57,6.85-7,9.5-11.14.29-.46,1.17-.55,1.77-.81Q154.57,429.57,154.58,446.34Z" transform="translate(-39.68 -155.24)"/><path class="cls-19" d="M172.61,315.32l-59.67,28.8c-3.76,1.81-8.31,1.33-10.84-1.76-1.23-1.5-2.89-2.39-4-3.86,1.38-2.42,3.56-4.22,5-6.56,4.14,5.46,8.44,4.06,13.84,1.35,20.5-10.29,41.27-20.06,62-30a21.1,21.1,0,0,1,2.65-.88c2-.08,1.41,1.33.83,2C179.11,308,176.81,312.52,172.61,315.32Z" transform="translate(-39.68 -155.24)"/><path class="cls-2" d="M172.61,315.32c2.84-3.95,5.59-8,9.25-11.24.61-.55.37-1.22-.31-1.67,5.09-2.54,10.1-5.28,15.31-7.57,17.31-7.6,33.25-18,51-24.69,1.26-.47,2.55-.88,3.82-1.31s3-1,3.88.71,0,3.19-1,4.44c-1.65,1.94-4.14,2.89-5.89,4.75q-25.12,12.18-50.25,24.36C189.83,307.24,181.21,311.25,172.61,315.32Z" transform="translate(-39.68 -155.24)"/><path class="cls-2" d="M88.13,407.23c2.89-3.31,6.11-6.34,8-10.48,1.36-3,5.49-2.95,7-5.92a38.83,38.83,0,0,1,20.56,24.25c-2.14-.26-3.75.07-3.88,2.78-.06,1.24-.89,2-2.18,2.6a11.13,11.13,0,0,0-5.21,5.32c-1,1.87-3.23,3.16-5.08,4.46-1.2.85-1.64-.14-1.71-1.27s.23-2.2-.69-3.08c-3.17-8.27-8.36-14.69-16.67-18.28C88.15,407.58,88.16,407.36,88.13,407.23Z" transform="translate(-39.68 -155.24)"/><path class="cls-20" d="M362.31,429.15c0-12.78.07-25.57-.08-38.35,0-3.09.67-4.4,4.06-4.22,5.42.28,10.87.08,16.31.08q0,11.86,0,23.73c-3.12,3.2-6.59,6-9.67,9.29-2.4,2.54-3.38,6.22-6.69,8C365,428.41,364.06,429.83,362.31,429.15Z" transform="translate(-39.68 -155.24)"/><path class="cls-21" d="M123.56,275.44c-.1-3,2.94-4.57,3.27-7.36,4.38,1.31,8.83,2.43,13.1,4,1.91.72,2.89.46,4.12-1a153.5,153.5,0,0,1,18.57-18.64c1.82-1.52,2.73-2.92,1.64-5.53-1.55-3.73-2.48-7.71-3.68-11.59,1.61-2.89,4.56-4.64,6.34-7.39,2.48,7.3,5,14.6,7.44,21.91.75,2.24-.24,3.9-1.93,5.35a222.11,222.11,0,0,0-24.74,24.72c-1.22,1.44-2.64,2.63-4.54,2.06C136.55,280,129.88,278.24,123.56,275.44Z" transform="translate(-39.68 -155.24)"/><path class="cls-22" d="M441.59,406.15c-.4-4.08,3.06-6.19,5.09-8.7,2.41-3,4.57-6.63,8.86-7.84,1.6-.45,1.71-2.28.77-3.8,9.41.71,17.33,4.94,24.74,10.41,1.59,1.18,1.39,2.32.49,3.8-2.82,4.63-5.58,9.3-8.36,14-.77,1.3-1.4,2.18-3,.69C462,407.26,452.41,404.63,441.59,406.15Z" transform="translate(-39.68 -155.24)"/><path class="cls-23" d="M500.49,556c2.78,0,5.24,1.35,7.71,2.31s3.42.3,4.54-1.67c6.72-11.79,13.39-23.62,20.36-35.27,2.14-3.59-1.25-4.37-2.34-6.35a4.28,4.28,0,0,0,2.22-3.57c.19-1.45.4-3,1.85-3.85,11,7.58,11.26,8.69,4.73,19.91q-10.26,17.61-20.42,35.27c-3.74,6.46-3.72,6.5-10.89,4.56-3-.8-6.06-1.38-8.67-3.21C497.47,561.14,500.31,558.71,500.49,556Z" transform="translate(-39.68 -155.24)"/><path class="cls-24" d="M258.48,491.19H227.39c-1.06-2,.54-3.07,1.64-4.09,5.3-4.88,9.52-10.71,14.27-16.07a2,2,0,0,1,1.07-.56c8.72,0,17.44,0,26.15,0,1.28,0,3-.69,3.71.84s-.06,3.27-1.16,4.51c-3.16,3.56-6.62,6.85-9.83,10.37C261.7,487.9,260.63,490.08,258.48,491.19Z" transform="translate(-39.68 -155.24)"/><path class="cls-25" d="M537.24,450.22c-5.15,1.16-10.27,2.46-15.46,3.41-1.94.36-2.89,1.09-3.23,3a141.8,141.8,0,0,1-7.08,25.86c-1.54,4,2,5.09,3.7,7.3,0,4.23-2.39,6-6.66,4.89L504.92,492c-3.23-2.39-4.09-5.23-2.64-9.19a164.65,164.65,0,0,0,8.23-30.95c.63-3.9,2.87-5.68,6.73-6.35,8.34-1.44,16.62-3.23,24.92-4.88,1.91,1.66,1.64,3.22-.24,4.66A15.71,15.71,0,0,0,537.24,450.22Z" transform="translate(-39.68 -155.24)"/><path class="cls-26" d="M451.45,591c-.06,4.17-3.9,6-5.69,9q-3.58-10.78-7.16-21.57c-.83-2.52,0-4.49,2-6.11a169.6,169.6,0,0,0,23.88-23.82,5.91,5.91,0,0,1,7.22-2c5.21,1.82,10.43,3.58,15.65,5.37.62.67.56,2.1.17,2-3.7-.58-5.4,3.13-8.48,3.75a11.31,11.31,0,0,1-2.74-.64c-4.06-2.19-7.11-1.5-10,2.35-4.54,6.12-10.24,11.19-16.08,16.06-2,1.63-2.83,3.11-1.63,5.84C450,584.3,450.55,587.71,451.45,591Z" transform="translate(-39.68 -155.24)"/><path class="cls-27" d="M251.91,407a7.89,7.89,0,0,1,3.17-5c4.24-3.42,7.2-8,11-11.84.67-.68,1.53-1.38,1.18-2.42-.46-1.38-1.78-1-2.8-1q-11.58,0-23.16,0a7.94,7.94,0,0,1-4.18,1.26c-6,.05-12.08.08-18.12,0a4.86,4.86,0,0,1-3.72-1.24c1-1.52,2.48-.75,3.7-.75,21.39-.05,42.78,0,64.17-.09,3.12,0,4.37.66,4.16,4-.3,4.75-.19,9.54,0,14.3.08,2.36-.78,3-3.05,3C273.44,407,262.67,407,251.91,407Z" transform="translate(-39.68 -155.24)"/><path class="cls-28" d="M166.92,228c-.45,3.89-3.67,5.41-6.34,7.39q-4.34-13.14-8.65-26.26c-.92-2.8.14-4.61,2.63-6,9.28-5.28,18.49-10.67,27.73-16,1.39-.8,2.8-1.58,4.21-2.37,3.76-.23,7.42-1.7,11.28-.91,1.54.32,3.42.08,3.43,2.48-6,2.61-11.4,6.1-16.93,9.47q-10,6.07-20.28,11.73c-2.38,1.31-2.78,2.51-1.85,5.07C164,217.57,165.36,222.8,166.92,228Z" transform="translate(-39.68 -155.24)"/><path class="cls-29" d="M318.92,429.16a43.42,43.42,0,0,1,.09-5.71c.26-1.88,1-.93,1.59-.05-1.63,1.24-.86,3-.87,4.52-.06,19.74-.14,39.48,0,59.22,0,3.47-1,4.45-4.35,4.25-4.61-.28-9.25-.16-13.88,0-2.26.06-3.17-.6-3.06-3,.19-4.21.13-8.43.18-12.65,5-4.55,8-10.86,13.54-14.89,4.25-3.09,6.44-7,5.78-12.49-.4-3.34,0-6.76-.18-10.14C318,435.17,317,432,318.92,429.16Z" transform="translate(-39.68 -155.24)"/><path class="cls-30" d="M325,393.07c-3.57,3-7.13,5.81-9.87,9.75-1.84,2.63-3.68,5.52-6.93,7.22a13.88,13.88,0,0,0-5.35,5.77c-1.11,2.15-2.54,1.87-4.19,1.91-.05-9.75-.06-19.49-.17-29.24,0-1.87.54-2.66,2.53-2.63,5.95.09,11.91.08,17.87,0a3.17,3.17,0,0,1,3.24,1.85C323,389.51,324,391.28,325,393.07Z" transform="translate(-39.68 -155.24)"/><path class="cls-31" d="M362.31,429.15a30.47,30.47,0,0,0,8-7.7c3.11-4.39,6.79-9,12.34-11.06q0,11.83,0,23.68c-1.5.32-3,.66-3.15,2.58-.11,1.24-.93,1.82-1.86,2.48a36.58,36.58,0,0,0-11.2,12.74c-.79,1.47-1.93,2.17-3.2,2-1.76-.29-.84-2-.85-3.05C362.26,443.57,362.31,436.36,362.31,429.15Z" transform="translate(-39.68 -155.24)"/><path class="cls-32" d="M41.94,386.66H71.06a52.67,52.67,0,0,1-4,5c-6.23,6-11.05,13.29-17.55,19.06-2.57,2.28-4,5.82-7.59,7Q41.92,402.2,41.94,386.66Z" transform="translate(-39.68 -155.24)"/><path class="cls-33" d="M442.32,256.7c-4.1-2.14-4.64-5.25-3.2-9.48,4-11.62,7.62-23.34,11.42-35,.4-1.26,1.25-2.49,0-3.76-.27-4.08,3-5.06,5.71-6.46,5.38,2.72,5.78,3.7,4,9.11-3.77,11.44-7.54,22.87-11.21,34.33-.59,1.84-1.79,3.81-.15,5.77A7.23,7.23,0,0,1,442.32,256.7Z" transform="translate(-39.68 -155.24)"/><path class="cls-34" d="M390.93,299c-10.75,0-21.51,0-32.26.2-4.17.09-2.66-2.71-2.91-4.68-.31-2.35.13-3.78,3.15-3.64a105.24,105.24,0,0,0,16.55-.56L362.22,283c-.14-3.11,2.95-4,4.23-6.1a98.39,98.39,0,0,1,19.35,10.89c3.11,2.16,6.15,3.77,10,3.36C396.64,295.29,393.13,296.76,390.93,299Z" transform="translate(-39.68 -155.24)"/><path class="cls-35" d="M258.48,491.19c2.81-6.14,8.26-10,12.66-14.82a9.09,9.09,0,0,0,1.84-2.11c.88-1.93,1.27-3.51-2-3.44-9.08.17-18.16.06-27.24.07-2.24,1.56-4.6,1.38-7,.43a.93.93,0,0,1-.35-1.26c15.61,0,31.23.13,46.84,0,3.28,0,4.22,1,4,4.13-.25,4.6-.16,9.23,0,13.84.06,2.34-.46,3.42-3.11,3.36C275.58,491.19,267,491.23,258.48,491.19Z" transform="translate(-39.68 -155.24)"/><path class="cls-36" d="M461.18,469.92a4.21,4.21,0,0,1-1.1,3.35c-5.34,6.4-11.87,11.82-15.87,19.33-.19.37-1.25.27-1.91.39a40.94,40.94,0,0,1-21.13-6.59,28.64,28.64,0,0,0,12.68-12c.72-1.31,2-2.17,2.86-3.44C445,473.33,453.15,473.28,461.18,469.92Z" transform="translate(-39.68 -155.24)"/><path class="cls-37" d="M394.1,446.41c4.37-.19,5.16-4.61,7.9-6.74,1.09-.85,1.58-2.39,3.54-2.07,1,.16,2.45-.75,2.33-1.88-.37-3.44,4.38-3.88,4-7.57-.12-1.32,2.94,1,4.24-.6a39.79,39.79,0,0,0,.12,23.69c-4.18,3.26-6.27,8.52-10.87,11.4a4.69,4.69,0,0,0-1.73,3.12c-.39,1.5-1.31,2-2.71,1C397.21,460.48,394.44,453.85,394.1,446.41Z" transform="translate(-39.68 -155.24)"/><path class="cls-38" d="M482.5,439.71c-.59,4.47,1.12,9.11-1.64,13.47-1.28,2-3.19,2.89-4.81,4.18-3.8,3-5.35,8-9.58,10.63-1.44.92-2.29,1.81-3.69.33,0-8.72-.07-17.43-.07-26.14,0-1.26-.43-3.16,1.64-3.08C470.4,439.32,476.5,438.15,482.5,439.71Z" transform="translate(-39.68 -155.24)"/><path class="cls-39" d="M41.92,435.69c5-4,9.4-8.69,14.73-12.27,1.56-1.05,1.55-2.09.69-3.77-1.49-2.91,1.38-7.21,4.84-7.65a3.19,3.19,0,0,1,1.11,2.52q.26,8.91,0,17.84a3.18,3.18,0,0,1-1.11,2.51c-3,3.36-5.57,7.12-9,10-4.13,3.46-5.58,9.53-11.3,11.32Z" transform="translate(-39.68 -155.24)"/><path class="cls-40" d="M236.38,470.87l7.35,0c.14,3.44-3,4.59-4.74,6.69-3.83,4.56-7.73,9.07-11.6,13.61-.95,0-1.89.12-2.84.13-9.86.08-9.86.08-9.31-9.83a2.57,2.57,0,0,0,2.44-1.05c4.79-7,11.3-12.58,16.69-19.1.21-.25.76-.2,1.16-.29C236.72,464.24,235.22,467.67,236.38,470.87Z" transform="translate(-39.68 -155.24)"/><path class="cls-41" d="M147.26,491.19c.7-4.46,5.32-5.54,7.49-8.7,2.76-4,7.34-6.64,8.86-11.6,5.58,0,11.17,0,16.75,0,.9,0,2-.33,2.56.75s-.37,1.71-.88,2.49c-2.93,4.52-7.11,7.88-10.74,11.76-1.56,1.67-2.93,3.53-4.39,5.3Z" transform="translate(-39.68 -155.24)"/><path class="cls-37" d="M358,487.3c1.93.23,3.14-1,4-2.34,2.69-4,7.24-6.72,8-12,0-.28.52-.61.86-.74a16.3,16.3,0,0,0,10.07-11.11c.13-.42,1.12-.58,1.71-.86,0,9.5.05,19,.15,28.49,0,1.9-.62,2.65-2.57,2.62-6-.07-11.94-.12-17.91,0C359.3,491.44,358.91,489.2,358,487.3Z" transform="translate(-39.68 -155.24)"/><path class="cls-42" d="M502.1,271.36c-7.85,3.33-16.11,5.43-24.16,8.18-.64.21-1.3.35-1.93.59-8.46,3.18-9.32,2.9-14.66-4.72a9.85,9.85,0,0,1,5.54-6.27c2.6,3.93,5.66,3,9.49,1.63,10.37-3.65,20.95-6.7,31.44-10,1.42,1.67.81,3.38-.28,4.76C505.9,267.62,504.44,269.92,502.1,271.36Z" transform="translate(-39.68 -155.24)"/><path class="cls-16" d="M215.26,386.66h26a206.31,206.31,0,0,1-17.11,19.2c-2.92,2.92-4.76,6.95-8.92,8.58Z" transform="translate(-39.68 -155.24)"/><path class="cls-43" d="M102.29,514.06H87.16l6.16,4.33c2.35,1.4.9,2.91.08,4.32-.94,1.61-1.86,3.39-4.27,2.15L69.82,514.69c4.29-5.37,8.34-9.8,16.18-8.84,7,.86,14.12.26,21.2.31C107.56,510,104.46,511.75,102.29,514.06Z" transform="translate(-39.68 -155.24)"/><path class="cls-44" d="M537.24,450.22c-.78-2.9,1.88-4.42,3.33-5.12,2.56-1.24,2.07-2.63,1.59-4.46,3.4-1.46,7.07-1.86,10.64-2.61,2.59-.54,3.42-1.67,3.39-4.39-.16-14.3-.09-28.6-.09-42.9,3.08,1.37,1.56,4.15,1.94,6.34,0,8.58,0,17.17,0,26,2.68-.67,4.46-3.05,6.92-1.24,0,6,0,11.92.14,17.88.09,3.53-1.74,5.15-4.94,5.8C552.54,447,544.89,448.64,537.24,450.22Z" transform="translate(-39.68 -155.24)"/><path class="cls-31" d="M360.73,454.3a23.82,23.82,0,0,1-13.81,14.1l-9.06-15.53c4.6-4.54,8.61-9.76,14.76-12.48A101.13,101.13,0,0,1,360.73,454.3Z" transform="translate(-39.68 -155.24)"/><path class="cls-20" d="M352.62,440.39c-5.17,3.87-9,9.28-14.76,12.48a144.53,144.53,0,0,1-8.53-14.58,44.69,44.69,0,0,1,10.31-11.94c1.14-.88,2.28-2.05,4-1.34A131.3,131.3,0,0,1,352.62,440.39Z" transform="translate(-39.68 -155.24)"/><path class="cls-45" d="M248.65,278.74c.46-2.34,2.25-3.47,4.15-4.46a4.16,4.16,0,0,0,2.15-4.06c-.11-2-2.11-1-3.26-1.38,11.78-3.27,23.59-6.39,35.93-6.55,3.59-.87,7.29.27,10.87-.62H301c-.5,2.93-2.49,5-4.06,7.37l-.3.09-.29-.13c-3.57.93-7.3-.35-10.86.73-9.2,1.4-18.42,2.69-27.3,5.61C255,276.4,251.81,277.6,248.65,278.74Z" transform="translate(-39.68 -155.24)"/><path class="cls-46" d="M436.71,471c1.38,2.92-1.89,4.25-2.87,5.42-3.43,4.1-6,9.84-12.67,10a34.49,34.49,0,0,1-11.68-8.91c4.21-5.44,9.94-9.6,13.34-15.73A45.15,45.15,0,0,0,436.71,471Z" transform="translate(-39.68 -155.24)"/><path class="cls-35" d="M318.93,439a85.44,85.44,0,0,0,.09,9.74c.6,5-.67,9.23-5,11.88-5.14,3.15-7.37,8.85-11.73,12.61a42,42,0,0,1-3.63,2.53V461c2.79-6,8-10,12.3-14.69a48.15,48.15,0,0,0,4.73-5.44C316.39,439.81,316.86,437.93,318.93,439Z" transform="translate(-39.68 -155.24)"/><path class="cls-47" d="M102.29,514.06c.86-3.11,4.06-4.78,4.91-7.9h39.24c.76,4.55-2.79,6-5.7,7.9Z" transform="translate(-39.68 -155.24)"/><path class="cls-48" d="M251.88,614l-35.72-19.15.36-1c7.12.23,14.28-1.25,21.09,3.14s14.42,8.2,21.65,12.26C260.23,613.83,257.31,615.72,251.88,614Z" transform="translate(-39.68 -155.24)"/><path class="cls-49" d="M249.43,506.16h38.42c.1,3.7-3.05,5.39-4.87,7.9H243.73a1.89,1.89,0,0,1,.1-2.86C245.7,509.52,247,507.24,249.43,506.16Z" transform="translate(-39.68 -155.24)"/><path class="cls-50" d="M103.1,331.94c0,3.46-2.6,5-5,6.56l-29.43-26,.55-1.09c5.44.22,10.95-1.48,15.8,3.69C90.62,321.07,97,326.35,103.1,331.94Z" transform="translate(-39.68 -155.24)"/><path class="cls-51" d="M422.83,461.76c-.18,4.47-3.1,7.08-6.54,9.15a6.34,6.34,0,0,0-2.69,3.81c-.7,2.14-1.92,3.06-4.11,2.77A34.67,34.67,0,0,1,401,466.77c.66-.06,1.55.16,1.83-.58,1.43-3.83,10-13.38,13.48-14.95A72.27,72.27,0,0,0,422.83,461.76Z" transform="translate(-39.68 -155.24)"/><path class="cls-35" d="M343.64,425c-4.66,2-7.55,5.94-10.61,9.66-1.12,1.36-2.07,2.8-3.7,3.62a138,138,0,0,1-8.7-14.86c3.43.18,4.79-2.77,6.6-4.71,2.66-2.87,6-5.28,7.3-9.27A134.57,134.57,0,0,1,343.64,425Z" transform="translate(-39.68 -155.24)"/><path class="cls-9" d="M171,560.81a96.6,96.6,0,0,1,14.75,8.29c1.79.9,1.8,2.35.84,3.71-1.7,2.39-3,5.17-5.75,6.66-5,0-10.05-.1-15.06.2-3.74.22-2.85-2.22-2.95-4.25-.11-2.24-.37-4.46,3.13-4a69.76,69.76,0,0,0,7.25,0l-12.25-7.26A15.35,15.35,0,0,0,171,560.81Z" transform="translate(-39.68 -155.24)"/><path class="cls-52" d="M305.87,664c-.91,2.18-1.31,4.62-3.34,6.22-1,.82-.3,1.72.05,2.56-6.64,0-13.29.11-19.94.13-6,0-6.92-.73-8.23-6.6-.3-1.32-.42-2.68-.62-4,3.79-1.9,4.36-6.2,6.78-9.13,1.33,1.58,1.1,3.68,1.27,5.43.46,4.56,2.67,5.65,6.94,5.38C294.45,663.56,300.17,663.9,305.87,664Z" transform="translate(-39.68 -155.24)"/><path class="cls-53" d="M366.45,276.88c.63,3.45-3.48,3.62-4.23,6.1a210.22,210.22,0,0,0-35.3-11.46c.45-2.62,2.71-4.29,3.5-6.72A123.1,123.1,0,0,1,366.45,276.88Z" transform="translate(-39.68 -155.24)"/><path class="cls-54" d="M140.74,514.06c1.75-2.74,5.24-4.23,5.7-7.9h35.95c.09,4.07-3.46,5.51-5.69,7.9Z" transform="translate(-39.68 -155.24)"/><path class="cls-3" d="M361.08,177.35c-4.89,0-9.8-.22-14.67.08-3.4.21-3.09-1.82-2.89-3.84.18-1.81-1.33-4.53,2.64-4.47,9.91.16,19.83.18,29.75,0,3.94-.07,2.55,2.59,2.69,4.43s.59,4.08-2.85,3.87C370.87,177.12,366,177.34,361.08,177.35Z" transform="translate(-39.68 -155.24)"/><path class="cls-46" d="M512.75,362c.49-2.64,3.13-3.42,4.75-4.94s.37-2,.16-3c10.19,0,20.39,0,30.59-.18,3.75-.08,2.8,2.35,2.89,4.35s.4,4-2.91,3.93C536.41,362,524.58,362,512.75,362Z" transform="translate(-39.68 -155.24)"/><path class="cls-55" d="M283,164.27c1.46-1.49,3.32-.76,5-.79,5.12-.1,10.24,0,15.36,0,6.58,0,8.4-1.49,9.87-8.05,6.13,0,12.25-.15,18.38-.14,4.62,0,6.27,1.43,6.26,6,0,1.46,1,2.47.86,3.83-1.77,1.73-3.67,3.25-4.47,5.87-.56,1.84-2,2.67-2.88-.1C329,164,329,164,321.26,164Q302.12,164.12,283,164.27Z" transform="translate(-39.68 -155.24)"/><path class="cls-30" d="M248.63,448.7c1.21-4.92,5.55-7.47,8.44-11.11,2.41-3,6-5.18,7.11-9.23.4,0,.81-.12,1.21-.13,5.35-.14,5.37-.14,5.35,5,0,4.34-.09,8.69-.14,13a11.37,11.37,0,0,1-9.24,2.91C257.13,448.8,252.84,449.77,248.63,448.7Z" transform="translate(-39.68 -155.24)"/><path class="cls-56" d="M407.24,637.83l-4.11,8.09c-8.3-8.39-16.11-17.22-23.7-26.24,2.72-.82,5.34-1.83,7.34-4,4.23,2.78,6.75,7.23,10.26,10.72S403.85,634,407.24,637.83Z" transform="translate(-39.68 -155.24)"/><path class="cls-57" d="M525.6,609.85c-4.49,0-9-.22-13.48.08-3.59.24-3.54-1.73-3.52-4.26,0-2.38-.07-4.14,3.3-4.06,9.26.21,18.53.24,27.79,0,3.83-.1,3.16,2.18,3.32,4.46.19,2.65-.44,4-3.52,3.84C534.87,609.67,530.23,609.85,525.6,609.85Z" transform="translate(-39.68 -155.24)"/><path class="cls-58" d="M249.43,506.16c-.91,3.35-5.36,4.14-5.7,7.9H210.21c-1.42-1.78-.54-3.21.77-4.51a32.2,32.2,0,0,1,3.32-3.39Z" transform="translate(-39.68 -155.24)"/><path class="cls-59" d="M143,554.35c-10.24-5.13-20.26-10.65-30.14-16.43,1.51-2.07,3.28-4,4.14-6.46,5.84,1.87,10.72,5.6,16.1,8.35,3.71,1.91,7.26,4.13,10.88,6.21,1,1.32,3.9,1.19,3.28,3.43C146.7,551.53,146.2,554.26,143,554.35Z" transform="translate(-39.68 -155.24)"/><path class="cls-60" d="M538.78,386.7c-7.81-1.64-15.6-3.34-23.44-4.86a5.21,5.21,0,0,1-3.85-2.67c-.66-1.26-1.58-2.9-.77-4.23.66-1.08,2.28-.42,3.46-.42a97.87,97.87,0,0,1,28.43,4.41,18.82,18.82,0,0,0,2.82.44C546.82,383.37,543.59,386.93,538.78,386.7Z" transform="translate(-39.68 -155.24)"/><path class="cls-61" d="M214.3,506.16c-.28,1.6-.83,3.11-2.36,3.88-1.79.89-1.76,2.42-1.73,4H176.7c.9-3.35,4.74-4.58,5.69-7.9Z" transform="translate(-39.68 -155.24)"/><path class="cls-62" d="M456.29,202c-1.47,2.53-5,3.21-5.71,6.46-8.63-4.59-17.18-9.33-25.33-14.74,1.61-2.22,3.85-4.09,4.07-7.12C438.64,191.13,447.45,196.59,456.29,202Z" transform="translate(-39.68 -155.24)"/><path class="cls-63" d="M365.56,206c-.48,4-3.49,5.37-6.69,6.56-5.43-1-10.86-2-16.27-3.15a4.76,4.76,0,0,1-3.93-3.7c-.6-2.63-1.06-5.29-1.59-7.94,3.31-1.26,4.66-4.64,7.28-6.66.36,8,4.55,11.76,12.55,12.71C359.65,204.17,363,204.15,365.56,206Z" transform="translate(-39.68 -155.24)"/><path class="cls-64" d="M201.21,186.24c-3.74-3-7.85-1.55-11.83-.83-1.23.22-2.26.92-2.88-.74,4.42-2.56,8.92-5,13.25-7.73,2.58-1.62,4.61-1.13,6.45.94,3.86,4.33,7.67,8.71,11.49,13.07.51,4.34-.67,6.44-4.3,7.71-2.95-3.22-5.93-6.41-8.83-9.66C203.57,187.89,202.71,186.7,201.21,186.24Z" transform="translate(-39.68 -155.24)"/><path class="cls-65" d="M344.36,191.13c-1.75,3-2.6,6.9-7.28,6.66q-2.86-13.48-5.72-27c1.48,1.74,2.1,1.07,2.33-.82.36-3,2.1-4.57,5-4.95C341.09,173.64,342.79,182.37,344.36,191.13Z" transform="translate(-39.68 -155.24)"/><path class="cls-66" d="M390.93,299c.9-3.08,4.28-4.64,4.88-7.91,8.3,0,16.62.07,24.92-.2,3.46-.12,2.93,1.95,2.85,3.94s1,4.45-2.83,4.36C410.82,299,400.87,299.08,390.93,299Z" transform="translate(-39.68 -155.24)"/><path class="cls-67" d="M508.51,494.64c3.53.15,5.59-1.69,6.66-4.89,6.74,5.74,13.46,11.5,19.66,17.84-.43,2-1,3.89-1.27,5.86-.3,1.81-1.33,2-2.8,1.56C523.26,508.31,515.47,501.92,508.51,494.64Z" transform="translate(-39.68 -155.24)"/><path class="cls-68" d="M280.57,653.11c-.45,5.29-3.05,8.8-6.78,9.13l-5.79-27c2.3-2,3.8-5.29,7.62-5A209.18,209.18,0,0,1,280.57,653.11Z" transform="translate(-39.68 -155.24)"/><path class="cls-43" d="M330.42,264.8c1.05,3.39-2.13,4.58-3.5,6.72a269.57,269.57,0,0,0-30-2.48c.18-3.1,2.2-5.19,4.06-7.37A105,105,0,0,1,326.32,264c1.23,1,2.87-.12,4.12.79Z" transform="translate(-39.68 -155.24)"/><path class="cls-69" d="M233.93,551c3.81,0,7.62.08,11.43,0s2.31,2.61,2.4,4.31.89,4-2.42,3.9c-7.89-.12-15.79-.09-23.68,0-3.68,0-2.29-2.63-2.39-4.33s-.9-4,2.41-3.9C225.76,551.11,229.85,551,233.93,551Z" transform="translate(-39.68 -155.24)"/><path class="cls-70" d="M538.78,386.7c3.18-1.58,6.78-2.77,6.65-7.33,3.79.78,7.58,1.58,11.38,2.34,8.21,1.64,8.56,2.08,8.18,10.69-1,2.49-2.94,4.36-4.34,6.56-1.78,2.8-2.72-.45-3.76-1.69-.36-2.16.78-4.51-.79-6.53Z" transform="translate(-39.68 -155.24)"/><path class="cls-71" d="M390.08,506.16c7.22-.05,14.44,0,21.65-.19,3.72-.12,2.85,2.34,3,4.36s.3,4-3,3.92c-9.4-.21-18.8-.14-28.19-.18-1-2,.52-2.93,1.65-3.88C386.81,508.83,388.42,507.45,390.08,506.16Z" transform="translate(-39.68 -155.24)"/><path class="cls-72" d="M390.08,506.16c-.29,2.07-1.91,3-3.43,4s-2.87,1.93-3.1,3.86H359c-2.48-2.91-.67-5.39.8-7.91Z" transform="translate(-39.68 -155.24)"/><path class="cls-9" d="M466.89,269.14l-5.54,6.27-19-18.71c2.65-1.3,4.61-3.42,6.61-5.51C455.37,256.72,461.62,262.44,466.89,269.14Z" transform="translate(-39.68 -155.24)"/><path class="cls-35" d="M318.93,439c-1.14,0-1.58.85-2.05,1.69-2.83,5.08-7.21,8.75-11.5,12.48-2.65,2.29-3.4,6.19-6.74,7.88V448c5.58-3.47,10-8.24,14.49-12.94,1.9-2,2.51-5.23,5.79-5.87C318.92,432.43,318.93,435.71,318.93,439Z" transform="translate(-39.68 -155.24)"/><path class="cls-73" d="M556.89,397.27c1.56-.29,1.27,2.74,2.9,1.79a3,3,0,0,0,1-3.58c-.33-1.14.18-1.67,1.13-1.29,1.95.81,2-1.19,3-1.79q0,14.7,0,29.41c-2,.22-4.08.34-5.26,2.43-.45.79-.85,1.91-2.1,1.31-1.09-.52-.74-1.65-.74-2.55,0-5.31,0-10.62,0-15.93C556.88,403.81,556.89,400.54,556.89,397.27Z" transform="translate(-39.68 -155.24)"/><path class="cls-74" d="M410.55,530.68c7.74,0,15.49.05,23.23-.18,3.73-.11,2.81,2.34,2.9,4.35s.38,4-2.92,3.93c-9.36-.22-18.74-.14-28.11-.18C407.69,536.21,408.73,533.2,410.55,530.68Z" transform="translate(-39.68 -155.24)"/><path class="cls-1" d="M536.68,295.78c-1.27,2.83-3.88,4.27-6.21,6-4.76-7.14-8.86-14.66-13-22.17,1.41-2.65,5.18-3.16,5.86-6.46C528.47,280.29,532.5,288.08,536.68,295.78Z" transform="translate(-39.68 -155.24)"/><path class="cls-51" d="M275.62,630.3c-3.15.73-4.28,4.54-7.61,5a27.64,27.64,0,0,1-1.45-7.32c-.36-.9,0-1.91-.44-2.81a4.7,4.7,0,0,1-.37-1.38c.39-1.92-1-2.52-2.33-3.26-3.86-2.15-7.69-4.36-11.54-6.55,4.95.44,6.57-.61,7.38-4.78,3.59,1.88,7.25,3.66,10.75,5.69,2.66,1.56,3.47,4.59,3.9,7.25S275.34,627.52,275.62,630.3Z" transform="translate(-39.68 -155.24)"/><path class="cls-75" d="M117,531.46c.88,3.6-1.44,5.16-4.14,6.46-8.1-4-16-8.34-23.76-13.06,3.11-1.05,4.73-3.06,4.19-6.47,5.78,2.32,11.06,5.57,16.37,8.77,1.63,1.61,4,2.05,5.74,3.39Z" transform="translate(-39.68 -155.24)"/><path class="cls-76" d="M143,554.35c2.11-.9,2.54-3.14,3.44-4.83,1.09-2-2.42-1.72-2.46-3.5,9.23,4.49,18.12,9.59,27,14.79-2.42,3.88-5.63,5.41-10,3.36A159.3,159.3,0,0,1,143,554.35Z" transform="translate(-39.68 -155.24)"/><path class="cls-31" d="M283,514.06c.36-3.41,3.9-4.87,4.87-7.9h27c-.57,3.59-4.57,4.7-5.69,7.9Z" transform="translate(-39.68 -155.24)"/><path class="cls-77" d="M421.91,334.35c-5.82-7.65-11.59-15.35-18.56-22.2,6.87-2.09,10.2-1.19,14.26,3.89,3.64,4.56,7.54,8.93,10.34,14.09C426.27,332,425.23,334.81,421.91,334.35Z" transform="translate(-39.68 -155.24)"/><path class="cls-36" d="M561.78,336.1c6.66-.05,13.33.06,20-.19,3.75-.13,2.81,2.34,2.9,4.35s.4,4-2.91,3.93c-8.56-.22-17.13-.14-25.69-.18a1.87,1.87,0,0,1,.54-3C558.68,339.68,560,337.68,561.78,336.1Z" transform="translate(-39.68 -155.24)"/><path class="cls-78" d="M523.35,273.14c1.09,4.9-3.68,4.5-5.86,6.46a86.12,86.12,0,0,1-4.42-7.5c-1.27-2.73-2.8-3.52-5.62-2.21-1.65.77-3.37,1.73-5.35,1.47a14.4,14.4,0,0,1,3.72-5.16c1.74-1.38,2.13-3.32,2-5.42,6.27-3,7.23-2.48,10.93,3.48C520.53,267.13,521.35,270.43,523.35,273.14Z" transform="translate(-39.68 -155.24)"/><path class="cls-79" d="M359.81,506.15c-.06,2.66-1.76,5.15-.8,7.91H332.07c-.36-3.52,2.36-5.45,4.06-7.91Z" transform="translate(-39.68 -155.24)"/><path class="cls-80" d="M207.74,571.57c6.12-.05,12.26.09,18.38-.2,3.44-.17,3,1.92,2.88,3.92s1,4.47-2.85,4.37c-7.76-.21-15.52-.06-23.29-.06C202.63,575.8,205.16,573.67,207.74,571.57Z" transform="translate(-39.68 -155.24)"/><path class="cls-81" d="M52.06,281.18H45.12c-4.69,0-6.38-2.48-4.95-7,.42-1.36,1.32-1.15,2.2-1.16,6.4,0,12.79.06,19.19,0,3.84-.05,2.08,2.76,2.23,4.37s1.06,4.05-2.34,3.86C58.33,281,55.19,281.18,52.06,281.18Z" transform="translate(-39.68 -155.24)"/><path class="cls-82" d="M213.39,198.66c2.68-1.88,3.59-4.74,4.3-7.71A200.66,200.66,0,0,1,234,209.17c-2,2.38-3.63,5.65-7.69,3.42C221.58,208.3,217.63,203.35,213.39,198.66Z" transform="translate(-39.68 -155.24)"/><path class="cls-1" d="M336.13,506.16c-.15,3.25-3.32,4.95-4.06,7.91H309.14c-.48-2.34,1-3.63,2.57-4.93,1.1-.92,2.46-1.58,3.12-3Z" transform="translate(-39.68 -155.24)"/><path class="cls-35" d="M207.74,571.57q-2.44,4-4.88,8l-22.05-.13c1.52-2.16,2.9-4.43,4.59-6.44a2.9,2.9,0,0,0,.32-3.93C192.71,573,200.39,570.79,207.74,571.57Z" transform="translate(-39.68 -155.24)"/><path class="cls-20" d="M421.91,334.35c2.39-.86,3.38-3.73,6-4.22A81.69,81.69,0,0,1,439.07,350c-1.24,2.44-2.09,5.33-5.79,4.8Z" transform="translate(-39.68 -155.24)"/><path class="cls-27" d="M344.3,308.3c5.41,0,10.81,0,16.21-.17,3.59-.14,2.54,2.37,2.55,4.13s1,4.22-2.56,4.12c-7.29-.2-14.59-.13-21.89-.18C338.24,311.94,341.58,310.34,344.3,308.3Z" transform="translate(-39.68 -155.24)"/><path class="cls-83" d="M561.78,336.1a6.22,6.22,0,0,1-3.63,4.93c-1.29.58-2.32,1.33-2.09,3-5,0-10.07-.07-15.09.18-3.77.19-2.79-2.36-2.89-4.35s-.44-4,2.9-3.94C547.9,336.15,554.84,336.05,561.78,336.1Z" transform="translate(-39.68 -155.24)"/><path class="cls-38" d="M410.55,530.68c-.36,3.43-1.25,6.53-4.9,7.92-4.76,0-9.53-.08-14.28.17-3.76.2-2.82-2.34-2.91-4.34s-.42-4.07,2.91-3.94C397.76,530.74,404.16,530.64,410.55,530.68Z" transform="translate(-39.68 -155.24)"/><path class="cls-84" d="M433.28,354.83c3-.27,3.21-4,5.79-4.8,4.25,6.37,6.05,13.74,8.53,20.84.23.65.31,1.24-.46,1.71-2.31,1.41-7.06-.16-8-2.64C437.2,364.9,435.23,359.87,433.28,354.83Z" transform="translate(-39.68 -155.24)"/><path class="cls-85" d="M344.3,308.3c-1.54,2.89-4.86,4.51-5.69,7.9-5.14.05-10.29,0-15.42.18-3.6.15-2.54-2.37-2.54-4.13s-1-4.23,2.54-4.13C330.23,308.33,337.26,308.26,344.3,308.3Z" transform="translate(-39.68 -155.24)"/><path class="cls-86" d="M479.07,557.63c2.11-2.32,3.76-5.4,7.85-4.13.58.18.35-1.07.46-1.66,4.57.74,8.77,2.68,13.11,4.15,2.38,2-1.47,3.55-.42,5.47-1.28.68,0,1.83-.49,2.66A144.1,144.1,0,0,1,479.07,557.63Z" transform="translate(-39.68 -155.24)"/><path class="cls-24" d="M388.08,331.87h-2.75a4.84,4.84,0,0,1-4.11-7.3c.48-.92,1.27-.85,2-.86a63.41,63.41,0,0,0,6.47,0c3.41-.4,4.47.59,4.6,4.31C394.55,334.16,390.21,331.1,388.08,331.87Z" transform="translate(-39.68 -155.24)"/><path class="cls-35" d="M176.41,600.86c-6.42,0-6.24,0-6.32-5.11,0-2.68,1-3.33,3.35-3.08,1.21.12,2.44,0,3.67,0,4.06,0,6.25,3.42,4.33,7.12C180.19,602.22,177.65,600,176.41,600.86Z" transform="translate(-39.68 -155.24)"/><path class="cls-24" d="M248.63,448.7c4.63,0,9.27,0,13.9.1,1.93,0,3.77.09,4.93-2,.73-1.3,1.93-1.35,3.14-.53.7,2.76-.78,3.14-3.09,3.12-9.2-.08-18.41.08-27.61-.08-2.83-.05-3.78.8-3.67,3.66.23,5.67.12,11.36.15,17.05v.81c-1.72-3.15-.37-6.57-.85-9.82.43-3.95-1.72-9,1-11.57,2.49-2.33,7.44-.44,11.3-.73Z" transform="translate(-39.68 -155.24)"/><path class="cls-43" d="M285.44,269.73c3.52-1.65,7.24-.5,10.86-.73C292.73,269.93,289.07,269.6,285.44,269.73Z" transform="translate(-39.68 -155.24)"/><path class="cls-43" d="M298.49,261.67c-3.55,1.43-7.24.46-10.87.62C291.19,261.16,294.85,261.59,298.49,261.67Z" transform="translate(-39.68 -155.24)"/><path class="cls-59" d="M115.43,530.55c-2.22-.62-4.5-1.13-5.74-3.39C111.77,528,114,528.65,115.43,530.55Z" transform="translate(-39.68 -155.24)"/><path class="cls-87" d="M265.75,623.77l.87.8c.48,1.06-.12,1.76-.79,2.45C263.81,626,263.87,624.9,265.75,623.77Z" transform="translate(-39.68 -155.24)"/><path class="cls-68" d="M265.83,627c.26-.82.53-1.63.79-2.45,1.56,1.16.36,2.27-.06,3.39Z" transform="translate(-39.68 -155.24)"/><path class="cls-37" d="M393.5,442.29c1.16,1.23.54,2.72.63,4.11C393.1,445.16,393.45,443.7,393.5,442.29Z" transform="translate(-39.68 -155.24)"/><path class="cls-53" d="M330.44,264.81c-1.4-.14-3,.57-4.12-.79C327.74,264,329.19,263.9,330.44,264.81Z" transform="translate(-39.68 -155.24)"/><path class="cls-88" d="M88.13,407.23c9.27,2.92,15.15,8.87,16.77,18.66.44,10.27-4.25,17.45-13.24,22.06l-3.28.94c-7.87.67-15.75.12-23.62.3-1.26,0-2.12-.34-2.09-1.8.27-13.43-.6-26.86.45-40.28Z" transform="translate(-39.68 -155.24)"/><path class="cls-3" d="M63.12,407.11c-.06,13-.06,26-.21,39.05,0,2.39.88,3,3.1,2.95,7.45-.15,14.91-.16,22.37-.22-3.23,1.52-6.65.52-10,.69-3.52.19-7.05.05-10.58,0-5.59,0-5.58,0-5.59-5.79q0-4.47,0-9V412C62.56,410.38,61.48,408.49,63.12,407.11Z" transform="translate(-39.68 -155.24)"/></svg>
